  <svg class="svg" width="205" height="40" viewBox="0 0 76 92" fill="none" xmlns="http://www.w3.org/2000/svg"
       style="position:absolute; visibility:hidden; display:none; width:0; height:0;">
    <symbol id="logo-vector" viewBox="0 0 205 40">
      <path
          d="M 0.84 11.024 c -0.206 -0.33 -0.397 -0.78 -0.574 -1.35 A 6.033 6.033 0 0 1 0 7.874 c 0 -1.17 0.25 -2.01 0.752 -2.52 c 0.532 -0.51 1.21 -0.765 2.036 -0.765 h 19.297 c 0.207 0.33 0.398 0.78 0.575 1.35 c 0.177 0.57 0.266 1.17 0.266 1.8 c 0 1.17 -0.266 2.01 -0.797 2.52 c -0.501 0.51 -1.165 0.765 -1.991 0.765 h -4.913 V 31.81 c -0.325 0.09 -0.84 0.18 -1.55 0.27 c -0.678 0.09 -1.356 0.135 -2.035 0.135 s -1.284 -0.06 -1.815 -0.18 c -0.501 -0.09 -0.929 -0.27 -1.283 -0.54 c -0.354 -0.27 -0.62 -0.645 -0.797 -1.125 c -0.177 -0.48 -0.265 -1.11 -0.265 -1.89 V 11.024 H 0.84 Z M 31.85 31.946 c -0.295 0.09 -0.768 0.18 -1.417 0.27 c -0.62 0.09 -1.268 0.135 -1.947 0.135 c -0.65 0 -1.24 -0.045 -1.77 -0.135 c -0.502 -0.09 -0.93 -0.27 -1.284 -0.54 a 2.792 2.792 0 0 1 -0.84 -1.08 c -0.178 -0.48 -0.266 -1.095 -0.266 -1.845 V 15.253 c 0 -0.69 0.118 -1.275 0.354 -1.755 a 4.35 4.35 0 0 1 1.106 -1.35 c 0.472 -0.39 1.048 -0.734 1.726 -1.034 a 16.838 16.838 0 0 1 4.736 -1.395 c 0.856 -0.15 1.711 -0.225 2.567 -0.225 c 1.416 0 2.538 0.285 3.364 0.855 c 0.826 0.54 1.239 1.44 1.239 2.7 c 0 0.42 -0.06 0.84 -0.177 1.26 c -0.118 0.39 -0.266 0.75 -0.443 1.08 a 20.679 20.679 0 0 0 -3.806 0.359 c -0.62 0.12 -1.21 0.255 -1.77 0.405 a 6.74 6.74 0 0 0 -1.372 0.45 v 15.343 Z M 42.345 4.05 c 0 -1.14 0.369 -2.1 1.106 -2.88 c 0.767 -0.78 1.77 -1.17 3.01 -1.17 c 1.24 0 2.228 0.39 2.965 1.17 c 0.767 0.78 1.151 1.74 1.151 2.88 s -0.384 2.1 -1.15 2.88 c -0.738 0.779 -1.727 1.169 -2.966 1.169 c -1.24 0 -2.242 -0.39 -3.01 -1.17 c -0.737 -0.78 -1.106 -1.74 -1.106 -2.88 Z m 7.878 27.896 c -0.325 0.06 -0.812 0.135 -1.46 0.225 c -0.62 0.12 -1.255 0.18 -1.904 0.18 s -1.239 -0.045 -1.77 -0.135 c -0.502 -0.09 -0.93 -0.27 -1.284 -0.54 a 2.79 2.79 0 0 1 -0.84 -1.08 c -0.178 -0.48 -0.266 -1.095 -0.266 -1.845 V 10.44 c 0.325 -0.06 0.797 -0.135 1.416 -0.225 c 0.65 -0.12 1.298 -0.18 1.948 -0.18 c 0.649 0 1.224 0.045 1.726 0.135 c 0.53 0.09 0.973 0.27 1.327 0.54 c 0.355 0.27 0.62 0.645 0.797 1.125 c 0.207 0.45 0.31 1.05 0.31 1.8 v 18.312 Z M 64.882 9.449 c 1.77 0 3.408 0.24 4.913 0.72 c 1.535 0.45 2.848 1.155 3.94 2.114 c 1.091 0.96 1.947 2.175 2.566 3.645 c 0.62 1.44 0.93 3.165 0.93 5.174 c 0 1.92 -0.266 3.6 -0.797 5.04 s -1.283 2.654 -2.257 3.644 c -0.974 0.96 -2.154 1.68 -3.54 2.16 c -1.358 0.48 -2.878 0.72 -4.56 0.72 c -1.268 0 -2.448 -0.195 -3.54 -0.585 v 7.47 c -0.295 0.089 -0.767 0.179 -1.416 0.269 c -0.65 0.12 -1.314 0.18 -1.992 0.18 c -0.65 0 -1.24 -0.045 -1.77 -0.135 c -0.502 -0.09 -0.93 -0.27 -1.284 -0.54 s -0.62 -0.645 -0.797 -1.125 c -0.177 -0.45 -0.265 -1.05 -0.265 -1.8 V 14.803 c 0 -0.81 0.162 -1.47 0.487 -1.98 c 0.354 -0.51 0.826 -0.975 1.416 -1.394 c 0.915 -0.6 2.05 -1.08 3.408 -1.44 c 1.357 -0.36 2.877 -0.54 4.558 -0.54 Z m 0.09 17.188 c 3.038 0 4.558 -1.845 4.558 -5.535 c 0 -1.92 -0.384 -3.344 -1.151 -4.274 c -0.738 -0.93 -1.815 -1.395 -3.23 -1.395 c -0.561 0 -1.063 0.075 -1.506 0.225 a 5.15 5.15 0 0 0 -1.15 0.45 v 9.899 c 0.354 0.18 0.737 0.33 1.15 0.45 c 0.413 0.12 0.856 0.18 1.328 0.18 Z M 105.466 31.811 c -0.325 0.09 -0.841 0.18 -1.549 0.27 c -0.679 0.09 -1.357 0.135 -2.036 0.135 a 8.28 8.28 0 0 1 -1.815 -0.18 a 2.936 2.936 0 0 1 -1.283 -0.54 c -0.354 -0.27 -0.62 -0.645 -0.797 -1.125 c -0.177 -0.48 -0.265 -1.11 -0.265 -1.89 v -7.019 h -8.498 v 10.349 c -0.325 0.09 -0.84 0.18 -1.549 0.27 c -0.679 0.09 -1.357 0.135 -2.036 0.135 c -0.678 0 -1.283 -0.06 -1.815 -0.18 c -0.501 -0.09 -0.929 -0.27 -1.283 -0.54 c -0.354 -0.27 -0.62 -0.645 -0.797 -1.125 c -0.177 -0.48 -0.265 -1.11 -0.265 -1.89 V 4.724 c 0.324 -0.06 0.84 -0.135 1.549 -0.225 c 0.708 -0.12 1.387 -0.18 2.036 -0.18 c 0.678 0 1.269 0.06 1.77 0.18 c 0.531 0.09 0.974 0.27 1.328 0.54 c 0.354 0.27 0.62 0.645 0.796 1.125 c 0.178 0.48 0.266 1.11 0.266 1.89 v 7.2 h 8.498 V 4.723 c 0.324 -0.06 0.84 -0.135 1.549 -0.225 c 0.708 -0.12 1.387 -0.18 2.036 -0.18 c 0.678 0 1.268 0.06 1.77 0.18 c 0.531 0.09 0.974 0.27 1.328 0.54 c 0.354 0.27 0.619 0.645 0.796 1.125 c 0.177 0.48 0.266 1.11 0.266 1.89 v 23.757 Z M 132.901 21.057 c 0 1.86 -0.28 3.525 -0.841 4.995 c -0.561 1.44 -1.357 2.654 -2.39 3.644 c -1.003 0.99 -2.213 1.74 -3.629 2.25 c -1.417 0.51 -2.995 0.765 -4.736 0.765 c -1.741 0 -3.319 -0.27 -4.736 -0.81 c -1.416 -0.54 -2.64 -1.305 -3.673 -2.295 c -1.003 -1.02 -1.785 -2.25 -2.346 -3.69 c -0.56 -1.44 -0.841 -3.059 -0.841 -4.859 c 0 -1.77 0.281 -3.374 0.841 -4.814 c 0.561 -1.44 1.343 -2.655 2.346 -3.645 a 10.468 10.468 0 0 1 3.673 -2.34 c 1.417 -0.54 2.995 -0.81 4.736 -0.81 c 1.741 0 3.319 0.286 4.736 0.856 c 1.416 0.54 2.626 1.32 3.629 2.34 c 1.033 0.99 1.829 2.204 2.39 3.644 c 0.561 1.44 0.841 3.03 0.841 4.77 Z m -15.491 0 c 0 1.83 0.34 3.24 1.018 4.23 c 0.708 0.96 1.682 1.44 2.921 1.44 c 1.24 0 2.184 -0.495 2.833 -1.485 c 0.679 -0.99 1.018 -2.385 1.018 -4.185 c 0 -1.8 -0.339 -3.18 -1.018 -4.14 c -0.679 -0.989 -1.638 -1.484 -2.877 -1.484 c -1.239 0 -2.198 0.495 -2.877 1.485 c -0.678 0.96 -1.018 2.34 -1.018 4.14 Z M 136.572 10.439 c 0.295 -0.09 0.752 -0.18 1.372 -0.27 c 0.649 -0.09 1.313 -0.135 1.991 -0.135 c 0.649 0 1.225 0.045 1.726 0.135 c 0.531 0.09 0.974 0.27 1.328 0.54 c 0.354 0.27 0.62 0.645 0.797 1.125 c 0.206 0.45 0.31 1.05 0.31 1.8 v 9.673 c 0 1.23 0.295 2.115 0.885 2.655 c 0.59 0.51 1.445 0.765 2.567 0.765 c 0.678 0 1.224 -0.06 1.637 -0.18 c 0.443 -0.12 0.782 -0.24 1.018 -0.36 V 10.439 c 0.295 -0.09 0.753 -0.18 1.372 -0.27 c 0.649 -0.09 1.313 -0.135 1.992 -0.135 c 0.649 0 1.224 0.045 1.726 0.135 c 0.531 0.09 0.974 0.27 1.328 0.54 c 0.354 0.27 0.619 0.645 0.796 1.125 c 0.207 0.45 0.31 1.05 0.31 1.8 v 13.678 c 0 1.5 -0.619 2.624 -1.859 3.374 c -1.032 0.66 -2.272 1.155 -3.717 1.485 c -1.417 0.36 -2.966 0.54 -4.648 0.54 c -1.593 0 -3.068 -0.18 -4.425 -0.54 c -1.328 -0.36 -2.479 -0.915 -3.453 -1.665 c -0.973 -0.75 -1.726 -1.71 -2.257 -2.88 c -0.531 -1.2 -0.796 -2.64 -0.796 -4.319 V 10.44 Z M 180.478 25.467 c 0 2.28 -0.841 4.064 -2.523 5.354 c -1.682 1.29 -4.161 1.935 -7.436 1.935 c -1.239 0 -2.39 -0.09 -3.452 -0.27 c -1.062 -0.18 -1.977 -0.45 -2.744 -0.81 c -0.737 -0.39 -1.328 -0.87 -1.77 -1.44 c -0.413 -0.57 -0.62 -1.245 -0.62 -2.024 c 0 -0.72 0.148 -1.32 0.443 -1.8 c 0.295 -0.51 0.649 -0.93 1.062 -1.26 c 0.856 0.48 1.829 0.915 2.921 1.305 c 1.121 0.36 2.405 0.54 3.851 0.54 c 0.914 0 1.608 -0.135 2.08 -0.405 c 0.501 -0.27 0.752 -0.63 0.752 -1.08 c 0 -0.42 -0.177 -0.75 -0.531 -0.99 c -0.354 -0.24 -0.944 -0.435 -1.77 -0.585 l -1.328 -0.27 c -2.567 -0.51 -4.485 -1.305 -5.754 -2.385 c -1.239 -1.11 -1.859 -2.684 -1.859 -4.724 c 0 -1.11 0.236 -2.115 0.709 -3.015 a 6.286 6.286 0 0 1 1.991 -2.25 c 0.856 -0.6 1.874 -1.064 3.054 -1.394 c 1.21 -0.33 2.538 -0.495 3.983 -0.495 c 1.092 0 2.11 0.09 3.054 0.27 c 0.974 0.15 1.815 0.39 2.523 0.72 c 0.708 0.33 1.269 0.765 1.682 1.304 c 0.413 0.51 0.619 1.125 0.619 1.845 c 0 0.69 -0.132 1.29 -0.398 1.8 c -0.236 0.48 -0.546 0.885 -0.929 1.215 c -0.236 -0.15 -0.591 -0.3 -1.063 -0.45 c -0.472 -0.18 -0.988 -0.33 -1.549 -0.45 c -0.56 -0.15 -1.136 -0.27 -1.726 -0.36 a 9.82 9.82 0 0 0 -1.549 -0.135 c -0.974 0 -1.726 0.12 -2.257 0.36 c -0.531 0.21 -0.797 0.555 -0.797 1.035 c 0 0.33 0.148 0.6 0.443 0.81 c 0.295 0.21 0.856 0.405 1.682 0.585 l 1.372 0.315 c 2.832 0.66 4.839 1.575 6.019 2.744 c 1.21 1.14 1.815 2.625 1.815 4.455 Z M 195.706 32.71 c -1.741 0 -3.364 -0.24 -4.869 -0.719 a 11.498 11.498 0 0 1 -3.895 -2.25 c -1.091 -0.99 -1.962 -2.234 -2.611 -3.734 c -0.619 -1.5 -0.929 -3.255 -0.929 -5.265 c 0 -1.98 0.31 -3.674 0.929 -5.084 c 0.649 -1.44 1.49 -2.61 2.523 -3.51 a 9.525 9.525 0 0 1 3.541 -2.024 a 12.601 12.601 0 0 1 4.071 -0.675 c 1.564 0 2.981 0.24 4.249 0.72 c 1.299 0.48 2.405 1.14 3.32 1.98 a 8.426 8.426 0 0 1 2.168 3.014 c 0.531 1.17 0.797 2.445 0.797 3.825 c 0 1.02 -0.28 1.8 -0.841 2.34 c -0.561 0.54 -1.342 0.884 -2.346 1.034 l -10.932 1.665 c 0.325 0.99 0.989 1.74 1.992 2.25 c 1.003 0.48 2.154 0.72 3.452 0.72 c 1.21 0 2.346 -0.15 3.408 -0.45 c 1.092 -0.33 1.977 -0.705 2.656 -1.125 c 0.472 0.3 0.87 0.72 1.195 1.26 c 0.324 0.54 0.487 1.11 0.487 1.71 c 0 1.35 -0.62 2.354 -1.859 3.014 c -0.944 0.51 -2.007 0.855 -3.187 1.035 c -1.18 0.18 -2.287 0.27 -3.319 0.27 Z m -1.24 -17.682 c -0.708 0 -1.327 0.12 -1.858 0.36 c -0.502 0.24 -0.915 0.555 -1.24 0.945 c -0.324 0.36 -0.575 0.78 -0.752 1.26 c -0.148 0.45 -0.236 0.915 -0.266 1.395 l 7.569 -1.26 c -0.089 -0.6 -0.413 -1.2 -0.974 -1.8 c -0.561 -0.6 -1.387 -0.9 -2.479 -0.9 Z"></path>
    </symbol>
    <symbol id="icon-night" viewBox="0 0 30 30">
      <path
          d="M 25.6101 10.6101 V 4.38992 H 19.3899 L 15 0 L 10.6101 4.38992 H 4.38992 V 10.6101 L 0 15 L 4.38992 19.3899 V 25.6101 H 10.6101 L 15 30 L 19.3899 25.6101 H 25.6101 V 19.3899 L 30 15 L 25.6101 10.6101 Z M 15 22.9576 C 13.8196 22.9576 12.6923 22.6923 11.6844 22.2281 C 14.4164 20.9682 16.3263 18.2096 16.3263 15 C 16.3263 11.7905 14.4164 9.03183 11.6844 7.77188 C 12.6923 7.30769 13.8196 7.04244 15 7.04244 C 19.3899 7.04244 22.9576 10.6101 22.9576 15 C 22.9576 19.3899 19.3899 22.9576 15 22.9576 Z"></path>
    </symbol>
    <symbol id="icon-account" viewBox="0 0 40 40">
      <path
          d="M 20 0 C 8.96 0 0 8.96 0 20 C 0 31.04 8.96 40 20 40 C 31.04 40 40 31.04 40 20 C 40 8.96 31.04 0 20 0 Z M 20 6 C 23.32 6 26 8.68 26 12 C 26 15.32 23.32 18 20 18 C 16.68 18 14 15.32 14 12 C 14 8.68 16.68 6 20 6 Z M 20 34.4 C 15 34.4 10.58 31.84 8 27.96 C 8.06 23.98 16 21.8 20 21.8 C 23.98 21.8 31.94 23.98 32 27.96 C 29.42 31.84 25 34.4 20 34.4 Z"></path>
    </symbol>
    <symbol id="menu-icon" viewBox="0 0 24 16">
      <path
          d="M 0 16 H 24 V 13.3333 H 0 V 16 Z M 0 9.33333 H 24 V 6.66667 H 0 V 9.33333 Z M 0 0 V 2.66667 H 24 V 0 H 0 Z"></path>
    </symbol>
    <symbol id="loupe-icon" viewBox="0 0 16 16">
      <path
          d="M 11.4351 10.0629 H 10.7124 L 10.4563 9.81589 C 11.3528 8.77301 11.8925 7.4191 11.8925 5.94625 C 11.8925 2.66209 9.23042 0 5.94625 0 C 2.66209 0 0 2.66209 0 5.94625 C 0 9.23042 2.66209 11.8925 5.94625 11.8925 C 7.4191 11.8925 8.77301 11.3528 9.81589 10.4563 L 10.0629 10.7124 V 11.4351 L 14.6369 16 L 16 14.6369 L 11.4351 10.0629 Z M 5.94625 10.0629 C 3.66838 10.0629 1.82962 8.22413 1.82962 5.94625 C 1.82962 3.66838 3.66838 1.82962 5.94625 1.82962 C 8.22413 1.82962 10.0629 3.66838 10.0629 5.94625 C 10.0629 8.22413 8.22413 10.0629 5.94625 10.0629 Z"
          fill="currentColor"></path>
    </symbol>
  </svg>